<?xml version="1.0" encoding="iso-8859-1"?>
<!-- Generator: Adobe Illustrator 16.0.0, SVG Export Plug-In . SVG Version: 6.00 Build 0)  -->
<!DOCTYPE svg PUBLIC "-//W3C//DTD SVG 1.1//EN" "http://www.w3.org/Graphics/SVG/1.1/DTD/svg11.dtd">
<svg version="1.1" id="Capa_1" xmlns="http://www.w3.org/2000/svg" xmlns:xlink="http://www.w3.org/1999/xlink" x="0px" y="0px"
	 width="430.668px" height="430.668px" viewBox="0 0 430.668 430.668" style="enable-background:new 0 0 430.668 430.668;"
	 xml:space="preserve">
<g>
	<path d="M424.908,118.646c-4.75-5.725-11.802-9.037-19.241-9.037H124.203l-2.73-14.188C119.73,86.361,113.14,79,104.329,76.267
		L32.413,53.958C19.227,49.87,5.219,57.243,1.129,70.431c-4.09,13.187,3.284,27.193,16.472,31.284l57.604,17.868l43.904,192.63
		c1.53,8.148,6.911,14.746,14.044,18.062c-0.212,1.712-0.333,3.452-0.333,5.221c0,23.348,18.995,42.342,42.342,42.342
		c23.347,0,42.342-18.995,42.342-42.342c0-0.975-0.045-1.938-0.11-2.896h66.845c-0.065,0.958-0.11,1.922-0.11,2.896
		c0,23.348,18.995,42.342,42.342,42.342c23.348,0,42.343-18.995,42.343-42.342c0-1.044-0.052-2.076-0.125-3.101
		c10.697-1.296,19.52-9.365,21.551-20.183l40-172.989C431.611,131.913,429.657,124.371,424.908,118.646z M175.162,356.116
		c-11.371,0-20.622-9.251-20.622-20.622s9.251-20.622,20.622-20.622s20.622,9.251,20.622,20.622S186.533,356.116,175.162,356.116z
		 M326.47,356.116c-11.371,0-20.622-9.251-20.622-20.622s9.251-20.622,20.622-20.622s20.622,9.251,20.622,20.622
		S337.84,356.116,326.47,356.116z M341.001,270.333H169.667c-8.284,0-15-6.716-15-15s6.716-15,15-15h171.334c8.284,0,15,6.716,15,15
		S349.285,270.333,341.001,270.333z M341.001,190.333H169.667c-8.284,0-15-6.716-15-15s6.716-15,15-15h171.334
		c8.284,0,15,6.716,15,15S349.285,190.333,341.001,190.333z"/>
</g>
<g>
</g>
<g>
</g>
<g>
</g>
<g>
</g>
<g>
</g>
<g>
</g>
<g>
</g>
<g>
</g>
<g>
</g>
<g>
</g>
<g>
</g>
<g>
</g>
<g>
</g>
<g>
</g>
<g>
</g>
</svg>
